<?xml version="1.0" encoding="utf-8"?>
<!-- Generator: Adobe Illustrator 21.1.0, SVG Export Plug-In . SVG Version: 6.00 Build 0)  -->
<svg version="1.1" id="Layer_1" xmlns="http://www.w3.org/2000/svg" xmlns:xlink="http://www.w3.org/1999/xlink" x="0px" y="0px"
	 viewBox="0 0 700 135" style="enable-background:new 0 0 700 135;" xml:space="preserve">
<style type="text/css">
	.st0{fill:rgba(0,0,0,0.1);}
	.st1{fill:transparent;}
</style>
<linearGradient id="SVGID_1_" gradientUnits="userSpaceOnUse" x1="29.7457" y1="106.5938" x2="99.4709" y2="36.8687">
	<stop  offset="0.2" style="stop-color:#1C438E"/>
	<stop  offset="0.6" style="stop-color:#2991C1"/>
	<stop  offset="1" style="stop-color:#40C1E1"/>
</linearGradient>
<path class="st0" d="M109.5,71.9c-0.2-0.7-0.5-1.3-0.8-1.9l-0.9-1.8l-1.8-3.5l-3.5-8.3c-0.3-1.8-0.5-3.6-0.7-5.5
	c-0.2-1.8-0.5-6.5-0.9-8.3c-0.2-0.9-0.5-1.8-0.8-2.7c-0.3-0.9-0.7-1.8-1.2-2.6c-0.5-0.8-1-1.6-1.6-2.4c-0.1-0.2-0.3-0.4-0.5-0.5
	l-0.2-0.3l-0.2-0.3c-0.3-0.3-0.6-0.7-1-1c-2.6-2.7-5.6-5.1-8.8-7c-1.6-1-3.3-1.8-5-2.6c-1.7-0.8-3.5-1.4-5.3-1.9
	c-3.6-1-7.4-1.6-11.1-1.6C61.4,19.6,57.6,20,54,21c-3.7,0.9-7.2,2.3-10.5,4.2c-3.3,1.8-6.3,4.1-9,6.8c-2.7,2.6-5,5.6-6.9,8.9
	c-1.9,3.3-3.4,6.8-4.3,10.4c-1,3.6-1.4,10.2-1.4,13.9c0,3.8,0.5,7.5,1.6,11.1c1,3.6,2.5,7.1,4.5,10.3c1.9,3.2,4.3,6.2,7,8.8
	c0.7,0.6,1.4,1.3,2.1,1.9c0.2,0.2,0.4,0.3,0.5,0.4l0.1,0.1l0.1,0.1c0.1,0.1,0.2,0.1,0.3,0.2c0.3,0.3,0.6,0.6,0.9,1
	c0.6,0.7,1,1.5,1.3,2.3c0.2,0.4,0.3,0.9,0.3,1.3c0,0.2,0.1,0.4,0.1,0.7l0,0.2l0,0.2l0,0.3l0.2,5.6l0.1,2.8l0.1,4.2l0,0.7l0,0.4
	l0,0.2l0,0.1l0,0c0,0,0,0.1,0,0c0,0.1,0,0.1,0.1,0.2c0.1,0.1,0.2,0.1,0.3,0c0.1-0.3,0-0.1,0.1-0.2l0,0l0-0.1l0-0.2l0-0.3l0-0.7
	l0-4.1c0-0.9,0.1-1.9,0.1-2.8l0.1-2.8c0-0.9,0-1.9,0.1-2.8l0-0.3c0-0.1,0-0.1,0-0.2v-0.2c0-0.3,0-0.5-0.1-0.8
	c-0.1-0.5-0.2-1-0.3-1.6c-0.3-1-0.8-2-1.4-2.8c-0.3-0.4-0.7-0.8-1-1.2c-0.1-0.1-0.2-0.2-0.3-0.3l-0.1-0.1l-0.1-0.1c0,0,0,0,0,0l0,0
	c-0.2-0.2-0.3-0.3-0.5-0.5c-0.7-0.6-1.3-1.3-1.9-1.9c0,0,0,0,0,0c5-4,10.1-7.8,15.5-11c0.5-0.3,0.9-0.6,1.4-0.8
	c1.3,1.7,2.8,3.3,4.2,4.9c1.4,1.6,3,3.1,4.6,4.6c1.5,1.5,3.3,2.8,5,4.2c1.6,1.4,3.5,2.5,5.3,3.8c6.5,4.2,13.6,7.4,21,9.1
	c-0.6,0.3-1.3,0.5-2.1,0.5l-3.3,0.1c-1.1,0-2.2,0.1-3.3,0.1c-1.1,0-2.2,0-3.3-0.1c-2.2-0.1-5.7-0.4-7.8-0.9c-2.1-0.5-4.2-1.2-6.2-2
	c-2-0.9-5.4-1.9-7.3-3.1l0,0c-0.1-0.1-0.2,0-0.3,0.1c-0.1,0.1-0.1,0.2,0,0.3c1.8,1.4,5.1,2.6,7.1,3.7c2,1.1,4.1,1.9,6.3,2.6
	c2.2,0.7,5.8,1.1,8,1.4c2.2,0.3,4.5,0.4,6.8,0.5c0.6,0,1.1,0,1.7,0l0.8,0l0.4,0c0.1,0,0.3,0,0.4,0c1.2,0,2.3-0.3,3.4-0.8
	c1.1-0.5,2-1.3,2.7-2.2c0.7-0.9,1.2-2,1.5-3.2c0-0.1,0-0.3,0.1-0.4c0-0.1,0-0.3,0-0.4l0-0.8l0.1-1.7l1.5-13l0.3-5.2l5.9-5l1.5-1.3
	c0.5-0.5,1-1.1,1.3-1.7c0.3-0.7,0.4-1.4,0.4-2.1C109.8,73.3,109.7,72.6,109.5,71.9z M100.6,63.1l1.9,3.5c0.6,1.2,1.2,2.3,1.9,3.5
	l0.9,1.7l0.1,0.1l0,0.1c-5.6-1.9-11.6-2.9-17.6-3c-1.4,0-2.8,0-4.2,0.1c-2.1-3.7-4.4-7.4-6.9-10.9c-2-2.8-4.1-5.4-6.3-8
	c0.4-0.3,0.8-0.6,1.1-1c1.4-1,2.8-2.1,4.2-3.1c1.1-0.8,2.3-1.5,3.5-2.2c5.5,3.4,10.7,7.4,15.4,11.9c1.7,1.6,3.3,3.3,4.9,5
	L100.6,63.1z M69,71.9c-1.9-0.5-3.9-1-5.9-1.3c-3.6-0.6-7.3-0.9-10.9-0.8c2.5-3.3,5.2-6.5,8-9.6c1.2-1.3,2.4-2.6,3.7-3.8
	c1.2-1.3,2.6-2.4,3.8-3.6c0.3-0.3,0.6-0.5,0.9-0.8c2.1,2.6,4.1,5.2,6,7.9c2.2,3.1,4.3,6.3,6.3,9.6C76.8,69.8,72.8,70.7,69,71.9z
	 M82.2,71.7c1.6,2.8,3.2,5.6,4.7,8.4c0,0.1,0.1,0.2,0.1,0.3c-1.7-1.2-3.5-2.3-5.3-3.3c-2.6-1.4-5.4-2.7-8.2-3.7
	C76.4,72.6,79.3,72.1,82.2,71.7z M55.2,78.2c-0.9-1.2-1.8-2.3-2.6-3.6C52,73.8,51.5,73,51,72.3c3.9,0,7.8,0.3,11.6,1
	c0.6,0.1,1.2,0.2,1.8,0.3C61.2,74.9,58.1,76.4,55.2,78.2z M26,74.8c4.4-4.5,8.8-8.9,13.4-13c0.4-0.3,0.7-0.6,1.1-0.9
	c0.7,1.6,1.5,3.2,2.2,4.8c0.7,1.6,1.5,3.1,2.4,4.5c-0.6,0.1-1.2,0.1-1.8,0.2C37.4,71.2,31.6,72.8,26,74.8C26,74.9,26,74.8,26,74.8z
	 M80.5,41.3c-1-0.6-2.1-1.2-3.1-1.8c4.9-1.3,10-2,15.2-2C88.4,38.2,84.4,39.5,80.5,41.3z M73.7,40.6c1.3,0.7,2.6,1.4,3.8,2.2
	c-0.9,0.5-1.9,1-2.8,1.6c-2,1.2-4,2.6-5.9,4c-1.3-1.4-2.6-2.8-4-4.2C67.8,42.8,70.7,41.6,73.7,40.6z M63,42.3
	c-0.8-0.7-1.5-1.4-2.3-2.1c-4.4-3.9-9.1-7.2-14.2-10c5,1.3,10,2.8,14.8,4.7c3.3,1.3,6.5,2.7,9.7,4.3C68.3,40,65.6,41.1,63,42.3z
	 M66.9,50c-3.1,2.6-6,5.4-8.8,8.3c-1.2,1.4-2.4,2.7-3.5,4.1l-3.4,4.3l-2,2.9c0-0.1-0.1-0.1-0.1-0.2C48,67.6,46.9,65.9,46,64
	c-0.9-1.8-2-3.5-2.8-5.3c4-3.3,8.2-6.5,12.6-9.3c2.3-1.5,4.6-2.8,7-4.1C64.2,46.8,65.6,48.4,66.9,50z M96,41.5
	c0.3,0.7,0.5,1.4,0.7,2.2c0.4,1.5,0.6,6,0.9,7.8c0.2,1.6,0.4,3.2,0.7,4.9c-0.6-0.7-1.3-1.5-1.9-2.2c-4.2-4.5-9-8.5-14.2-11.9
	c3.7-2,7.5-3.6,11.6-4.8l0.2,0.2c0.5,0.6,0.9,1.2,1.2,1.8C95.4,40.2,95.8,40.8,96,41.5z M50.2,26.7c1.6-0.6,3.2-1.1,4.8-1.5
	c0.8-0.2,1.6-0.4,2.5-0.5c0.8-0.1,1.7-0.3,2.5-0.4c1.7-0.2,3.4-0.3,5.1-0.2c3.4,0.1,6.7,0.6,10,1.5c1.6,0.5,3.2,1,4.7,1.7
	c1.5,0.7,3,1.4,4.5,2.3c1.4,0.9,2.8,1.8,4.2,2.9c1.3,1,2.6,2.2,3.7,3.4c0.3,0.3,0.6,0.6,0.9,0.9l0.2,0.2l0.2,0.2l0,0
	c0,0-0.1,0-0.1,0c-6.1-1.1-12.5-0.7-18.6,0.7c-4.1-2.1-8.4-3.9-12.8-5.2c-5.6-1.8-11.4-3-17.2-3.5c0.3-0.2,0.5-0.3,0.8-0.5
	C47.1,28.1,48.6,27.3,50.2,26.7z M41.3,31.6c0.9-0.7,1.9-1.3,2.9-1.9c5.4,3.6,10.4,7.6,15,12.1c0.5,0.5,1,1.1,1.5,1.6
	c-2.2,1.1-4.4,2.4-6.5,3.7c-4.3,2.8-8.4,5.9-12.2,9.3c-2.9-6-5.3-12.2-7.5-18.6c0.9-1,1.8-2,2.8-3C38.6,33.7,39.9,32.6,41.3,31.6z
	 M25.6,57.2c0.3-1.7,0.7-3.4,1.1-5c0.5-1.6,1.1-3.3,1.8-4.8c0.7-1.6,1.5-3.1,2.4-4.5c0.9-1.5,2-3,3.2-4.4c1.1,6.9,3,13.7,5.6,20.2
	c-0.6,0.5-1.1,1.1-1.7,1.6c-4.4,4.4-8.5,9.2-12.1,14.2c-0.3-1.4-0.5-2.8-0.7-4.2c-0.2-1.7-0.2-3.5-0.2-5.2
	C25.2,63.3,25.3,58.9,25.6,57.2z M32.8,89.8c-1-1.4-2-3-2.8-4.5c-0.8-1.6-1.6-3.2-2.2-4.8c-0.6-1.6-1.1-3.3-1.6-5
	c0-0.1,0-0.2-0.1-0.3c5.8-1.2,11.6-2.2,17.5-2.6c0.9-0.1,1.9-0.1,2.8-0.2c0.2,0.3,0.3,0.5,0.5,0.8c-0.5,0.9-1.1,1.7-1.6,2.6
	c-3.5,5.8-6.6,11.9-9.2,18.1C34.8,92.5,33.8,91.2,32.8,89.8z M50.5,81.2c-5.3,3.7-10.1,7.9-14.3,12.6c3.8-6.3,7.7-12.6,12-18.6
	c0.4,0.5,0.7,1.1,1.1,1.6c0.8,1.2,1.6,2.4,2.5,3.5C51.4,80.6,50.9,80.9,50.5,81.2z M95.9,103.8l0,0.8v0.1c0,0,0,0,0,0v0l0,0v0
	c0,0,0,0,0,0.1l0,0.1c0,0.1,0,0.2,0,0.2c-0.1,0.3-0.2,0.7-0.3,1c-0.1,0.3-0.3,0.7-0.5,1c-0.4,0.5-0.8,0.9-1.3,1.2
	c-7.1-3-13.7-6.8-19.7-11.4c-3.3-2.6-6.5-5.2-9.4-8.2c-1.4-1.5-3-2.9-4.3-4.5c-1.2-1.4-2.5-2.8-3.6-4.3c4-2.1,8.1-4,12.4-5.4
	c0,0,0.1,0,0.1,0c4,1.1,7.8,2.5,11.6,4.3c2.6,1.2,5.2,2.6,7.7,4.1c2.8,5.4,5.3,11,7.8,16.6l-0.3,2.4L95.9,103.8z M106,74.3
	c0,0.1,0,0.2-0.1,0.2c0,0.1,0,0.1-0.1,0.2c0,0,0,0.1-0.1,0.1c0,0,0,0,0,0l0,0l0,0l-1.5,1.3l-2.9,2.7l-2.9,2.7l-0.2,0.1
	c-0.6,0.5-0.9,1.3-0.9,2.1c0,2.3,0,3.1,0,5.4l-1,9.9c-1.4-4.8-3.1-9.5-5-14.1c2,1.3,4,2.7,6,4.1c-2.1-2.2-4.4-4.2-6.8-6.1
	c-0.5-1.2-1.1-2.5-1.6-3.7c-1.2-2.6-2.5-5.2-3.9-7.8c1-0.1,2-0.2,3-0.2c5.9-0.3,11.8,0.2,17.7,1.2c0,0,0,0,0,0.1
	c0.1,0.2,0.2,0.4,0.2,0.6c0.1,0.4,0.2,0.7,0.2,1C106,74.1,106,74.2,106,74.3z"/>
<g>
	<path class="st1" d="M163.4,108.7v-35l-7.3,35h-3.4l-7.7-35v35H138V58.1h10.2l6.3,30.8l5.8-30.8h10.2v50.6H163.4z"/>
	<path class="st1" d="M198.6,65.2h-13V79h9.4V86h-9.4v15.6h13v7.1h-20.6V58.1h20.6V65.2z"/>
	<path class="st1" d="M223.1,108.7l-11-31.2v31.2h-7.1V58.1h7.7l10.4,30v-30h7.1v50.6H223.1z"/>
	<path class="st1" d="M251.6,108.7h-7.6V65.2h-8v-7.1h23.8v7.1h-8.2V108.7z"/>
	<path class="st1" d="M270.7,97.6l-1.7,11.1h-7.5l8.3-50.6h9.9l8.8,50.6h-7.8l-1.7-11.1H270.7z M274.7,70.3l-2.9,20.2h5.9
		L274.7,70.3z"/>
	<path class="st1" d="M314.5,108.7h-20.2V58.1h7.6v43.5h12.6V108.7z"/>
	<path class="st1" d="M341.4,85.9v22.8h-7.6V58.1h7.6v20.7h8.4V58.1h7.6v50.6h-7.6V85.9H341.4z"/>
	<path class="st1" d="M385.5,65.2h-13V79h9.4V86h-9.4v15.6h13v7.1h-20.6V58.1h20.6V65.2z"/>
	<path class="st1" d="M400.8,97.6l-1.7,11.1h-7.5l8.3-50.6h9.9l8.8,50.6h-7.8L409,97.6H400.8z M404.8,70.3l-2.9,20.2h5.9L404.8,70.3
		z"/>
	<path class="st1" d="M444.6,108.7h-20.2V58.1h7.6v43.5h12.6V108.7z"/>
	<path class="st1" d="M460.9,108.7h-7.6V65.2h-8v-7.1h23.8v7.1h-8.2V108.7z"/>
	<path class="st1" d="M482.5,85.9v22.8h-7.6V58.1h7.6v20.7h8.4V58.1h7.6v50.6h-7.6V85.9H482.5z"/>
	<path class="st1" d="M540.8,65.2h-13V79h9.4V86h-9.4v15.6h13v7.1h-20.6V58.1h20.6V65.2z"/>
	<path class="st1" d="M572.4,112.6c-4.4-0.1-6.7-1.2-8.4-4.2c-1.8,0.8-3.2,1.1-5,1.1c-3.6,0-6.8-1.4-8.9-4c-2.4-3-3-5.8-3-13.2V74.6
		c0-7.4,0.6-10.2,3-13.2c2-2.5,5.3-4,8.9-4c3.5,0,6.8,1.5,8.8,4c2.4,3,3,5.7,3,13.2v17.7c0,6.2-0.4,8.8-1.7,11.2
		c0.8,1,1.6,1.4,3.3,1.6V112.6z M554.7,91.4c0,4.8,0.2,7.1,0.5,8.1c0.6,1.8,2,2.9,3.8,2.9c1.9,0,3.3-1.2,3.9-3.3
		c0.2-1,0.4-3.4,0.4-7.7v-16c0-4.9-0.2-7.1-0.5-8.1c-0.6-1.8-2-2.9-3.7-2.9c-2,0-3.4,1.2-3.9,3.3c-0.2,1-0.4,3.6-0.4,7.7V91.4z"/>
	<path class="st1" d="M601.8,58.1v34.1c0,7.5-0.6,10.2-3,13.2c-2,2.5-5.3,4-8.8,4c-3.6,0-6.8-1.5-8.9-4c-2.4-3-3-5.8-3-13.2V58.1
		h7.6v33.3c0,4.8,0.2,7.1,0.5,8.1c0.6,1.8,2,2.9,3.8,2.9c1.9,0,3.3-1.2,3.9-3.3c0.2-1,0.4-3.4,0.4-7.7V58.1H601.8z"/>
	<path class="st1" d="M617,108.7h-7.6V58.1h7.6V108.7z"/>
	<path class="st1" d="M638.5,108.7h-7.6V65.2h-8v-7.1h23.8v7.1h-8.2V108.7z"/>
	<path class="st1" d="M668.3,108.7h-7.6V88.2l-9.5-30.1h7.9l5.4,19.9l5.2-19.9h7.7l-9.1,30.1V108.7z"/>
</g>
<g>
	<path class="st1" d="M143,39.5h1.9v2h-7.6v-2h2.1V28.4h-2.1v-2h7.7v2H143V34l5.6-5.6h-1.9v-2h6.4v2h-1.9l-4,3.9l5.1,7.2h1.6v2h-7.6
		v-2h1.7l-3.3-4.8l-1.8,1.7V39.5z"/>
	<path class="st1" d="M160.3,39.5h2.1V28.4h-2.1v-2h14.3v5.4h-2c-0.6-2.9-0.9-3.4-2.8-3.4h-3.7v4.6h1.2c1.3,0,1.4-0.3,1.7-2.1h1.8
		v6.1H169c-0.3-1.9-0.5-2.1-1.7-2.1h-1.2v4.8h3.6c2.3,0,2.6-0.8,3.1-4h2v5.9h-14.5V39.5z"/>
	<path class="st1" d="M186.7,30h-0.2v9.5h2.1v2h-6.1v-2h2V28.4h-2v-2h6.4l6.4,10.5h0.2v-8.5h-2.1v-2h6.1v2h-2v13.3h-3.8L186.7,30z"
		/>
	<path class="st1" d="M210.6,30h-0.2v9.5h2.1v2h-6.1v-2h2V28.4h-2v-2h6.4l6.4,10.5h0.2v-8.5h-2.1v-2h6.1v2h-2v13.3h-3.8L210.6,30z"
		/>
	<path class="st1" d="M230.3,39.5h2.1V28.4h-2.1v-2h14.3v5.4h-2c-0.6-2.9-0.9-3.4-2.8-3.4h-3.7v4.6h1.2c1.3,0,1.4-0.3,1.7-2.1h1.8
		v6.1H239c-0.3-1.9-0.5-2.1-1.7-2.1h-1.2v4.8h3.6c2.3,0,2.6-0.8,3.1-4h2v5.9h-14.5V39.5z"/>
	<path class="st1" d="M252.4,39.5h2.1V28.4h-2.1v-2h6.7c6.1,0,9,3,9,7.4c0,4.4-2.8,7.6-8.9,7.6h-6.9V39.5z M259.5,39.5
		c3.3,0,4.6-1.4,4.6-5.6c0-4-1.3-5.5-4.7-5.5h-1.1v11.2H259.5z"/>
	<path class="st1" d="M285.8,28.4H284v-2h5.8v2h-1.7l-4.3,6.8v4.3h2v2h-7.8v-2h2v-4l-4.3-7h-1.6v-2h7.7v2h-1.7l2.8,4.8L285.8,28.4z"
		/>
	<path class="st1" d="M294.8,34.5h5.9v2.3h-5.9V34.5z"/>
	<path class="st1" d="M309.2,36.2h2c1,2.6,2.2,3.7,4.7,3.7c1.6,0,2.5-0.8,2.5-2c0-1.4-1.5-1.7-3.8-2.3c-2.5-0.6-5.3-1.4-5.3-4.8
		c0-2.8,2.4-4.8,5.3-4.8c1.6,0,3.1,0.6,3.8,1.7l0.5-1.6h2v5.4h-2c-1-2.5-2.1-3.5-4-3.5c-1.5,0-2.4,0.9-2.4,1.9
		c0,1.5,1.7,1.9,3.9,2.4c2.4,0.6,5.1,1.4,5.1,4.7c0,2.9-2.3,4.9-5.5,4.9c-1.9,0-3.5-0.8-4.4-1.8l-0.5,1.8h-2V36.2z"/>
	<path class="st1" d="M338.2,36.6H333l-1,2.8h1.9v2h-5.8v-2h1.6l4.8-13.2h3.8l4.8,13.2h1.8v2h-7.9v-2h2L338.2,36.6z M333.7,34.8h3.9
		l-1.9-5.6h-0.1L333.7,34.8z"/>
	<path class="st1" d="M353.6,39.5h2.4V28.1h-0.6c-1.9,0-2.2,0.6-3.1,4.3h-1.8v-6.1h14.7v6.1h-1.8c-0.8-3.7-1.2-4.3-3.1-4.3h-0.6
		v11.3h2.4v2h-8.5V39.5z"/>
	<path class="st1" d="M372.4,34c0-4.7,3.3-8,7.3-8c1.9,0,3.4,0.7,4.3,1.8l0.5-1.7h2.1v6h-2.3c-0.9-2.8-2.2-4.2-4.1-4.2
		c-2.2,0-3.7,1.6-3.7,5.9c0,4.1,1.6,5.9,4.2,5.9c2.3,0,3.6-1.7,4-4.2h2.2c-0.4,3.9-2.6,6.4-6.7,6.4C375.4,41.8,372.4,38.7,372.4,34z
		"/>
	<path class="st1" d="M394.1,39.5h2.1V28.4h-2.1v-2h7.8v2h-2v4.3h5.9v-4.3h-2.1v-2h7.8v2h-2.1v11.1h2.1v2h-7.8v-2h2.1v-4.8h-5.9v4.8
		h2v2h-7.8V39.5z"/>
	<path class="st1" d="M418.7,39.5h2.1V28.4h-2.1v-2H433v5.4h-2c-0.6-2.9-0.9-3.4-2.8-3.4h-3.7v4.6h1.2c1.3,0,1.4-0.3,1.7-2.1h1.8
		v6.1h-1.8c-0.3-1.9-0.5-2.1-1.7-2.1h-1.2v4.8h3.6c2.3,0,2.6-0.8,3.1-4h2v5.9h-14.5V39.5z"/>
	<path class="st1" d="M446.6,39.5h2.1v2h-7.9v-2h2.1V28.4h-2.1v-2h8.3c4.6,0,6.1,1.9,6.1,3.8c0,1.8-1.1,3.3-4.7,3.7v0.2
		c2.9,0.3,3.8,1.5,3.9,3.3l0.1,0.9c0,1,0.3,1.2,0.7,1.2c0.3,0,0.6-0.3,0.9-1.3l1.3,0.4c-0.4,1.8-1.3,3.2-3.4,3.2
		c-2.4,0-3.4-1.2-3.4-3.8l0-0.8c0-1.7-0.4-2.4-2.1-2.4h-1.9V39.5z M448.6,33c1.8,0,2.6-0.7,2.6-2.4c0-1.6-0.5-2.3-2.5-2.3h-2.1V33
		H448.6z"/>
	<path class="st1" d="M473.6,34c0-4.7,3.3-8,7.3-8c1.9,0,3.4,0.7,4.3,1.8l0.5-1.7h2.1v6h-2.3c-0.9-2.8-2.2-4.2-4.1-4.2
		c-2.2,0-3.7,1.6-3.7,5.9c0,4.1,1.6,5.9,4.2,5.9c2.3,0,3.6-1.7,4-4.2h2.2c-0.4,3.9-2.6,6.4-6.7,6.4C476.6,41.8,473.6,38.7,473.6,34z
		"/>
	<path class="st1" d="M495.2,39.5h2.1V28.4h-2.1v-2h14.3v5.4h-2c-0.6-2.9-0.9-3.4-2.8-3.4H501v4.6h1.2c1.3,0,1.4-0.3,1.7-2.1h1.8
		v6.1h-1.8c-0.3-1.9-0.5-2.1-1.7-2.1H501v4.8h3.6c2.3,0,2.6-0.8,3.1-4h2v5.9h-14.5V39.5z"/>
	<path class="st1" d="M521.6,30h-0.2v9.5h2.1v2h-6.1v-2h2V28.4h-2v-2h6.4l6.4,10.5h0.2v-8.5h-2.1v-2h6.1v2h-2v13.3h-3.8L521.6,30z"
		/>
	<path class="st1" d="M544.4,39.5h2.4V28.1h-0.6c-1.9,0-2.2,0.6-3.1,4.3h-1.8v-6.1H556v6.1h-1.8c-0.8-3.7-1.2-4.3-3.1-4.3h-0.6v11.3
		h2.4v2h-8.5V39.5z"/>
	<path class="st1" d="M563.2,39.5h2.1V28.4h-2.1v-2h14.3v5.4h-2c-0.6-2.9-0.9-3.4-2.8-3.4H569v4.6h1.2c1.3,0,1.4-0.3,1.7-2.1h1.8
		v6.1h-1.8c-0.3-1.9-0.5-2.1-1.7-2.1H569v4.8h3.6c2.3,0,2.6-0.8,3.1-4h2v5.9h-14.5V39.5z"/>
	<path class="st1" d="M591.1,39.5h2.1v2h-7.9v-2h2.1V28.4h-2.1v-2h8.3c4.6,0,6.1,1.9,6.1,3.8c0,1.8-1.1,3.3-4.7,3.7v0.2
		c2.9,0.3,3.8,1.5,3.9,3.3l0.1,0.9c0,1,0.3,1.2,0.7,1.2c0.3,0,0.6-0.3,0.9-1.3l1.3,0.4c-0.4,1.8-1.3,3.2-3.4,3.2
		c-2.4,0-3.4-1.2-3.4-3.8l0-0.8c0-1.7-0.4-2.4-2.1-2.4h-1.9V39.5z M593.1,33c1.8,0,2.6-0.7,2.6-2.4c0-1.6-0.5-2.3-2.5-2.3h-2.1V33
		H593.1z"/>
	<path class="st1" d="M617.9,39.5h2.1V28.4h-2.1v-2h14v5.5h-2c-0.7-3.1-1.2-3.5-3.1-3.5h-3.1v4.8h1c1.3,0,1.4-0.3,1.7-2.1h1.8v6.2
		h-1.8c-0.2-1.9-0.5-2.2-1.7-2.2h-1v4.4h2.5v2h-8.3V39.5z"/>
	<path class="st1" d="M639,33.9c0-4.7,3.4-7.9,7.7-7.9c4.5,0,7.7,3.1,7.7,7.9c0,4.7-3.4,7.9-7.7,7.9C642.2,41.8,639,38.7,639,33.9z
		 M650.4,33.9c0-4.1-1.3-6-3.7-6c-2.4,0-3.6,1.9-3.6,6c0,4.2,1.3,6,3.7,6S650.4,38.1,650.4,33.9z"/>
	<path class="st1" d="M667.6,39.5h2.1v2h-7.9v-2h2.1V28.4h-2.1v-2h8.3c4.6,0,6.1,1.9,6.1,3.8c0,1.8-1.1,3.3-4.7,3.7v0.2
		c2.9,0.3,3.8,1.5,3.9,3.3l0.1,0.9c0,1,0.3,1.2,0.7,1.2c0.3,0,0.6-0.3,0.9-1.3l1.3,0.4c-0.4,1.8-1.3,3.2-3.4,3.2
		c-2.4,0-3.4-1.2-3.4-3.8l0-0.8c0-1.7-0.4-2.4-2.1-2.4h-1.9V39.5z M669.6,33c1.8,0,2.6-0.7,2.6-2.4c0-1.6-0.5-2.3-2.5-2.3h-2.1V33
		H669.6z"/>
</g>
</svg>
