<svg width="626" height="626" viewBox="0 0 626 626" fill="none" xmlns="http://www.w3.org/2000/svg">
<circle cx="313" cy="313" r="313" fill="white"/>
<path d="M312.5 96C192.85 96 96 192.831 96 312.5C96 432.15 192.831 529 312.5 529C354.538 529 395.732 516.656 430.709 493.886C441.189 487.064 443.476 472.683 435.556 463.007L426.671 452.153C419.975 443.972 408.183 441.968 399.283 447.675C373.539 464.187 343.329 473.129 312.5 473.129C223.929 473.129 151.871 401.071 151.871 312.5C151.871 223.929 223.929 151.871 312.5 151.871C399.92 151.871 473.129 202.171 473.129 291.548C473.129 325.408 454.715 361.162 422.348 364.611C407.202 364.215 407.585 353.387 410.583 338.401L431.04 232.673C433.542 219.745 423.638 207.742 410.471 207.742H371.203C368.304 207.742 365.506 208.809 363.343 210.74C361.18 212.671 359.804 215.331 359.477 218.212L359.468 218.292C346.638 202.665 324.158 199.283 307.115 199.283C242.007 199.283 186.79 253.612 186.79 331.505C186.79 388.513 218.903 423.928 270.597 423.928C294.153 423.928 320.679 410.277 336.063 390.464C344.375 420.236 371.517 420.235 397.791 420.235C492.866 420.235 529 357.719 529 291.548C529 172.52 432.992 96 312.5 96ZM293.574 361.762C274.151 361.762 262.085 348.124 262.085 326.17C262.085 286.892 288.955 262.679 313.268 262.679C332.729 262.679 344.347 275.984 344.347 298.27C344.347 337.608 314.775 361.762 293.574 361.762Z" fill="#492E69"/>
</svg>
