<svg width="626" height="626" viewBox="0 0 626 626" fill="none" xmlns="http://www.w3.org/2000/svg">
<circle cx="313" cy="313" r="313" fill="white"/>
<path d="M296.688 520.264C173.809 342.126 151 323.843 151 258.375C151 168.697 223.697 96 313.375 96C403.052 96 475.75 168.697 475.75 258.375C475.75 323.843 452.941 342.126 330.062 520.264C321.999 531.913 304.75 531.912 296.688 520.264ZM313.375 326.031C350.741 326.031 381.031 295.741 381.031 258.375C381.031 221.009 350.741 190.719 313.375 190.719C276.009 190.719 245.719 221.009 245.719 258.375C245.719 295.741 276.009 326.031 313.375 326.031Z" fill="#492E69"/>
</svg>
