<svg width="626" height="626" viewBox="0 0 626 626" fill="none" xmlns="http://www.w3.org/2000/svg">
<circle cx="313" cy="313" r="313" fill="white"/>
<path d="M516.652 401.973L421.931 361.379C417.885 359.654 413.388 359.291 409.117 360.343C404.846 361.396 401.033 363.807 398.251 367.214L356.304 418.465C290.471 387.425 237.49 334.445 206.451 268.612L257.701 226.664C261.115 223.888 263.532 220.074 264.585 215.801C265.637 211.529 265.27 207.029 263.537 202.984L222.942 108.264C221.04 103.903 217.677 100.343 213.431 98.1971C209.185 96.0511 204.324 95.4538 199.685 96.5082L111.73 116.805C107.258 117.838 103.268 120.356 100.411 123.949C97.5538 127.542 95.999 131.997 96 136.587C96 353.513 271.825 529 488.413 529C493.005 529.003 497.462 527.449 501.056 524.592C504.65 521.735 507.17 517.743 508.203 513.27L528.5 425.315C529.548 420.654 528.938 415.773 526.775 411.512C524.613 407.252 521.033 403.879 516.652 401.973V401.973Z" fill="#492E69"/>
</svg>
